{"version": "0.6.4", "modules": [{"plugin": "Core", "version": "0.6.4", "model": "AudioInterface", "params": [], "pos": [37, 1]}, {"plugin": "Core", "version": "0.6.4", "model": "HostSync", "params": [], "data": {"startWaitsForBeat": true, "mult": 1}, "pos": [0, 0]}, {"plugin": "Bogaudio", "version": "1.1.34", "model": "Bogaudio-Edge", "params": [{"paramId": 0, "value": 0.10000000149011612, "toggle": 0}, {"paramId": 1, "value": 0.0099999997764825821, "toggle": 0}, {"paramId": 2, "value": 0.031622998416423798, "toggle": 0}], "data": {}, "pos": [3, 0]}, {"plugin": "AS", "version": "1.0.3", "model": "Merge2_5", "params": [], "pos": [6, 0]}, {"plugin": "ImpromptuModular", "version": "0.6.17", "model": "Clocked", "params": [{"paramId": 0, "value": 120.0, "toggle": 0}, {"paramId": 1, "value": 0.0, "toggle": 0}, {"paramId": 2, "value": 0.0, "toggle": 0}, {"paramId": 3, "value": 0.0, "toggle": 0}, {"paramId": 4, "value": 0.0, "toggle": 0}, {"paramId": 5, "value": 0.0, "toggle": 0}, {"paramId": 6, "value": 0.0, "toggle": 0}, {"paramId": 7, "value": 0.0, "toggle": 0}, {"paramId": 8, "value": 0.5, "toggle": 0}, {"paramId": 9, "value": 0.5, "toggle": 0}, {"paramId": 10, "value": 0.5, "toggle": 0}, {"paramId": 11, "value": 0.5, "toggle": 0}, {"paramId": 12, "value": 0.0, "toggle": 0}, {"paramId": 13, "value": 0.0, "toggle": 0}, {"paramId": 14, "value": 0.0}, {"paramId": 15, "value": 0.0, "toggle": 0}, {"paramId": 16, "value": 0.0, "toggle": 0}, {"paramId": 17, "value": 0.0, "toggle": 0}, {"paramId": 18, "value": 0.0, "toggle": 0}, {"paramId": 19, "value": 0.0, "toggle": 0}], "data": {"running": false, "panelTheme": 0, "expansion": 0, "displayDelayNoteMode": true, "bpmDetectionMode": false, "emitResetOnStopRun": false, "ppqn": 4, "resetClockOutputsHigh": true, "momentaryRunInput": false}, "pos": [11, 0]}, {"plugin": "Core", "version": "0.6.4", "model": "Notes", "params": [], "width": 150.0, "text": "This template allow clock control through the start and stop buttons from Logic Pro X", "pos": [31, 0]}], "wires": [{"colorIndex": 0, "outputModuleId": 1, "outputId": 1, "inputModuleId": 2, "inputId": 0}, {"colorIndex": 1, "outputModuleId": 2, "outputId": 1, "inputModuleId": 3, "inputId": 0}, {"colorIndex": 2, "outputModuleId": 2, "outputId": 2, "inputModuleId": 3, "inputId": 1}, {"colorIndex": 3, "outputModuleId": 3, "outputId": 0, "inputModuleId": 4, "inputId": 5}, {"colorIndex": 0, "outputModuleId": 1, "outputId": 0, "inputModuleId": 4, "inputId": 6}, {"colorIndex": 2, "outputModuleId": 1, "outputId": 6, "inputModuleId": 4, "inputId": 4}]}